<?xml version="1.0" encoding="UTF-8"?>
<!DOCTYPE svg PUBLIC "-//W3C//DTD SVG 1.0//EN" "http://www.w3.org/TR/2001/REC-SVG-20010904/DTD/svg10.dtd">
<!-- Creator: CorelDRAW 2020 (64-Bit) -->
<svg xmlns="http://www.w3.org/2000/svg" xml:space="preserve" width="6419px" height="2737px" version="1.0" shape-rendering="geometricPrecision" text-rendering="geometricPrecision" image-rendering="optimizeQuality" fill-rule="evenodd" clip-rule="evenodd"
viewBox="0 0 3056050 1302950"
 xmlns:xlink="http://www.w3.org/1999/xlink"
 xmlns:xodm="http://www.corel.com/coreldraw/odm/2003">
 <g id="Warstwa_x0020_1">
  <metadata id="CorelCorpID_0Corel-Layer"/>
  <path fill="#E31E24" fill-rule="nonzero" d="M812600 1001540l91530 0 0 103510 100190 0 0 -103510 91910 0 0 296430 -91910 0 0 -120090 -100190 0 0 120090 -91530 0 0 -296430zm-186400 -195740l-17010 -18210c0,-27840 5270,-57220 15910,-88080l30660 -96020 -143180 7950c-92430,133360 -219750,200010 -381860,200010 -36370,0 -66700,-7950 -90950,-23860 -26500,-17970 -39770,-45620 -39770,-82570 0,-80690 59080,-136560 177300,-167660 77540,-19890 186390,-25930 277300,-25930 30290,-51700 57980,-116870 82950,-195650l64790 -200060c4550,-11350 17440,-18540 38670,-21560l68180 -4550 7960 13610c0,43220 -15530,109110 -46630,197760 -31050,88650 -61000,156450 -89750,203650l29330 2250c28800,0 56640,-4550 83900,-13850l57980 -180700c31820,-88260 64790,-158320 99050,-210410 44710,-67990 90760,-101920 137720,-101920l11360 20460c0,9680 -3020,19500 -9060,29380l-17060 28220c-28030,58120 -55680,122340 -82990,192440l-70440 198860 53420 -15910c6810,3070 12510,11740 17020,26170 4550,14370 8720,37130 12500,68180 -9050,8340 -29900,16300 -62480,23870l-62540 14760c-6030,16670 -12650,42450 -19880,77290 -7190,34840 -14190,62870 -20990,84100 -10530,32610 -11510,47990 -43220,56830l-23870 2250 -44320 -1100zm-469360 -85250c39390,0 77100,-9100 113080,-27460 35990,-18400 69870,-43750 101740,-75950 -51170,0 -98010,5110 -151190,14570 -78780,13460 -118160,33350 -118160,59660 0,11160 5270,19120 15910,23480 9820,3020 17200,4740 22130,5120 4940,390 10450,580 16490,580zm787580 -97180c0,-61190 31060,-114620 93210,-159850 57590,-42270 117830,-63500 180700,-63500 66650,0 100000,33360 100000,100060 0,34070 -17440,66270 -52280,96600 -26500,22710 -59850,42030 -100000,57930l-40930 14810c-15140,4510 -29180,6810 -42020,6810 -8340,0 -14810,570 -19360,1670 -4500,1150 -7190,4170 -7950,9490 0,10970 6470,20270 19360,27650 14370,5890 28030,8910 40870,8910 25010,0 57600,-9490 97750,-28220 18930,-8150 36370,-17250 52280,-26880 15910,-9870 29570,-19510 40920,-29380 15050,-14860 30260,-30230 45290,-44900 62680,-59660 95640,-93390 98660,-100960l41880 -133890c30290,-95310 59280,-173320 87310,-233740 36180,-83910 64590,-125980 85050,-125980 13470,0 23100,5320 28800,15910 5660,10590 8530,22900 8530,37330 0,54340 -18590,123100 -55730,206240l-107960 236810c-37850,84480 -56830,147930 -56830,190140l5710 15910c18160,-4550 41680,-17580 70480,-39200l62810 -50380c3410,-56770 34350,-106640 92880,-149240 57550,-42270 117780,-63500 180700,-63500 66660,0 100010,33360 100010,100060 0,34070 -17450,66270 -52280,96600 -26500,22710 -59850,42030 -100010,57930l-40920 14810c-15140,4510 -29180,6810 -42070,6810 -8290,0 -14760,570 -19310,1670 -4560,1150 -7190,4170 -7960,9490 0,10970 6470,20270 19310,27650 14430,5890 28040,8910 40930,8910 25010,0 57590,-9490 97750,-28220 18930,-8150 36370,-17250 52280,-26880 15910,-9870 29560,-19510 40920,-29380l15910 -15710 11560 -8350c7010,-8550 16030,-18220 27060,-28980l65940 -60240c14370,-14370 26300,-28030 35790,-40920 9490,-12840 17640,-29140 24440,-48880 3670,-9580 5040,-19050 15910,-22710l96600 0 -76140 165940c7060,3490 152760,-109950 175000,-125020 47010,-31820 78440,-47720 94350,-47720 17390,0 31820,3010 43170,9100 11360,6040 17060,17390 17060,34070 0,15140 -16100,53810 -48300,115910 -13290,25650 -65970,111580 -55100,138680 12840,0 37080,-12510 72690,-37520l61130 -49290c8750,-60290 46320,-111710 112760,-154310 66710,-42270 139450,-63500 218220,-63500l40930 0c14370,0 28030,2690 40920,8010l5650 36890 1150 41310c-13360,19410 -52880,-8910 -93580,-8910 -60040,0 -111560,18590 -154540,55680 -43030,37130 -64400,85240 -64400,144380 0,17960 6880,36690 27460,37470 33350,0 74800,-33690 124250,-101160 20900,-27500 34380,-50190 52470,-81790l98090 9050 -39770 79020c-19700,38430 -30670,64020 -32920,76720 21340,16030 101280,-54780 123870,-69530 6030,-3790 13220,-8530 21560,-14570 4550,0 7950,6420 10250,19310l3410 34070c0,26550 -28420,57410 -85250,92630 -56830,35270 -99620,52850 -128420,52850 -15910,0 -27460,-4740 -34650,-14180 -7190,-9490 -10830,-22960 -10830,-40350 -21940,21560 -42020,35990 -60230,43370 -18160,7380 -43180,11160 -74990,11160 -64330,0 -90890,-45430 -99480,-103860 -14770,17300 -36920,35330 -66470,54070 -55290,33110 -100770,49790 -136370,49790 -17400,0 -32780,-3400 -46000,-10210 -13280,-6850 -19890,-18780 -19890,-36180 0,-12890 11740,-45280 35220,-97370l47730 -102830c-15910,8290 -50750,34650 -104560,79160l-131820 110790c-48500,37710 -79930,56640 -94350,56640 -8340,0 -15910,-3020 -22720,-9100 -6800,-5850 -10250,-13420 -10250,-22530 0,-13460 5700,-34450 17060,-63060l15910 -37130 -21570 17060 -12440 9030c-17090,22700 -46290,44010 -87610,63900 -81990,38570 -203560,67610 -267050,7380 -20540,-19570 -32380,-46910 -35520,-81870 -13030,21240 -34520,42720 -64490,64430 -50020,34640 -94350,51890 -132970,51890 -19700,0 -35030,-4170 -46050,-12310 -10970,-8340 -16480,-21950 -16480,-40730l11400 -43950 14760 -48490c-47820,34410 -85920,77710 -139780,103650 -82030,38590 -203620,67590 -267100,7380 -24240,-23100 -36370,-57020 -36370,-101540l0 -52090zm240940 -140350c-26500,0 -54150,13460 -82950,40540 -21990,21750 -39770,48490 -53430,79930 25020,0 56830,-9110 95460,-27080 44700,-20270 67080,-41300 67080,-63110 0,-20270 -8720,-30280 -26160,-30280zm676220 0c-26500,0 -54150,13460 -82940,40540 -22000,21750 -39780,48490 -53430,79930 25010,0 56830,-9110 95450,-27080 44710,-20270 67090,-41300 67090,-63110 0,-20270 -8730,-30280 -26170,-30280zm502430 471660l15520 43940 46580 1200 -36990 28320 13270 44710 -38380 -26450 -38390 26450 13280 -44710 -36990 -28320 46570 -1200 15530 -43940zm133450 0l15530 43940 46570 1200 -36990 28320 13270 44710 -38380 -26450 -38380 26450 13220 -44710 -36940 -28320 46570 -1200 15530 -43940zm133410 0l15520 43940 46580 1200 -36990 28320 13270 44710 -38380 -26450 -38390 26450 13280 -44710 -37000 -28320 46580 -1200 15530 -43940zm-1485380 195270c0,-96770 56450,-153390 153150,-153390 97460,0 154060,53930 154060,150990 0,34650 -5800,62970 -17450,85150 -11690,22140 -28560,39390 -50600,51750 -22090,12320 -49550,18500 -82470,18500 -60010,0 -106480,-16100 -136280,-66560 -13560,-22950 -20410,-51800 -20410,-86440l0 0zm91520 190c0,29900 5560,51420 16680,64450 11170,13080 26360,19600 45520,19600 19700,0 35030,-6420 45760,-19170 10830,-12840 16250,-35750 16250,-68950 0,-27840 -5660,-48210 -16920,-61050 -11310,-12890 -26590,-19310 -45900,-19310 -18500,0 -33400,6560 -44570,19600 -11260,13030 -16820,34690 -16820,64830l0 0zm233560 -148600l278640 0 0 73270 -93580 0 0 223160 -91480 0 0 -223160 -93580 0 0 -73270zm319710 0l245100 0 0 63300 -153190 0 0 47250 142030 0 0 60430 -142030 0 0 58360 157750 0 0 67090 -249660 0 0 -296430zm299010 0l91480 0 0 223540 143270 0 0 72890 -234750 0 0 -296430z"/>
 </g>
</svg>
