<?xml version="1.0" encoding="UTF-8"?>
<!DOCTYPE svg PUBLIC "-//W3C//DTD SVG 1.0//EN" "http://www.w3.org/TR/2001/REC-SVG-20010904/DTD/svg10.dtd">
<!-- Creator: CorelDRAW 2020 (64-Bit) -->
<svg xmlns="http://www.w3.org/2000/svg" xml:space="preserve" width="482px" height="206px" version="1.0" shape-rendering="geometricPrecision" text-rendering="geometricPrecision" image-rendering="optimizeQuality" fill-rule="evenodd" clip-rule="evenodd"
viewBox="0 0 482000 205500"
 xmlns:xlink="http://www.w3.org/1999/xlink"
 xmlns:xodm="http://www.corel.com/coreldraw/odm/2003">
 <g id="Warstwa_x0020_1">
  <metadata id="CorelCorpID_0Corel-Layer"/>
  <path fill="#ffffff" fill-rule="nonzero" d="M329520 157960l14430 0 0 35260 22600 0 0 11500 -37030 0 0 -46760 0 0zm-201360 0l14440 0 0 16330 15800 0 0 -16330 14500 0 0 46760 -14500 0 0 -18940 -15800 0 0 18940 -14440 0 0 -46760zm-29400 -30870l-2680 -2870c0,-4390 830,-9020 2510,-13890l4840 -15150 -22590 1260c-14570,21030 -34660,31540 -60220,31540 -5740,0 -10520,-1250 -14350,-3760 -4180,-2830 -6270,-7200 -6270,-13020 0,-12730 9320,-21540 27960,-26450 5140,-1280 11380,-2300 18730,-3010 7360,-720 15690,-1080 25010,-1080 4780,-8150 9140,-18430 13080,-30850l10220 -31560c720,-1790 2750,-2920 6100,-3400l10750 -720 1260 2150c0,6820 -2450,17210 -7360,31190 -4890,13980 -9620,24680 -14150,32120l4620 360c4550,0 8940,-720 13240,-2190l9140 -28500c5020,-13920 10220,-24970 15620,-33190 7060,-10720 14320,-16070 21730,-16070l1790 3230c0,1530 -480,3070 -1430,4630l-2690 4450c-4420,9170 -8780,19300 -13090,30350l-11110 31370 8430 -2510c1070,480 1970,1850 2680,4130 720,2260 1370,5850 1970,10750 -1430,1310 -4720,2570 -9860,3760l-9860 2330c-950,2630 -1990,6700 -3130,12190 -1140,5500 -2240,9920 -3310,13270 -1090,3340 -2280,6030 -3590,8060l-3230 900 -3770 350 -6990 -170 0 0zm-74020 -13440c6210,0 12160,-1440 17830,-4330 5680,-2910 11020,-6900 16050,-11980 -3590,0 -7330,170 -11210,530 -3890,360 -8090,920 -12640,1760 -12420,2130 -18630,5260 -18630,9410 0,1760 830,3020 2500,3710 1550,470 2720,740 3500,800 780,60 1650,100 2600,100zm124210 -15330c0,-9650 4900,-18080 14700,-25210 9090,-6670 18590,-10020 28510,-10020 10510,0 15770,5260 15770,15780 0,5380 -2750,10460 -8250,15240 -4180,3580 -9440,6630 -15770,9140l-6460 2330c-2380,710 -4600,1070 -6620,1070 -1320,0 -2340,100 -3060,270 -710,180 -1130,660 -1250,1500 0,1730 1020,3190 3050,4360 2270,930 4420,1400 6450,1400 3940,0 9080,-1490 15420,-4450 2980,-1280 5730,-2720 8240,-4240 2510,-1560 4660,-3070 6460,-4630l2500 -2480 1680 -1210c810,-1120 1790,-2260 2960,-3390 9880,-9410 15080,-14730 15560,-15930l6610 -21110c4770,-15040 9340,-27340 13760,-36870 5710,-13230 10190,-19870 13420,-19870 2120,0 3640,840 4540,2510 890,1670 1350,3610 1350,5890 0,8570 -2940,19410 -8790,32530l-17030 37350c-5970,13320 -8960,23330 -8960,29980l0 0 900 2510c2860,-710 6570,-2770 11110,-6180l9910 -7950c540,-8950 5420,-16820 14650,-23530 9070,-6670 18580,-10020 28500,-10020 10510,0 15770,5260 15770,15780 0,5380 -2750,10460 -8240,15240 -4180,3580 -9440,6630 -15780,9140l-6450 2330c-2390,710 -4600,1070 -6640,1070 -1300,0 -2320,100 -3040,270 -720,180 -1140,660 -1260,1500 0,1730 1020,3190 3050,4360 2270,930 4420,1400 6450,1400 3950,0 9090,-1490 15420,-4450 2990,-1280 5740,-2720 8250,-4240 2510,-1560 4660,-3070 6450,-4630l2510 -2480 1820 -1320c1110,-1350 2530,-2870 4270,-4570l10400 -9500c2270,-2270 4150,-4420 5650,-6450 1490,-2030 2780,-4600 3850,-7710l890 -2330c370,-600 900,-1010 1620,-1250l15240 0 0 0 -12010 26170 710 350c10520,-8360 19480,-15050 26890,-20070 7410,-5020 12370,-7530 14880,-7530 2740,0 5020,480 6810,1440 1790,950 2690,2740 2690,5370 0,2390 -2540,8490 -7620,18280 -5080,9810 -8220,16500 -9410,20090l720 1790c2020,0 5850,-1980 11470,-5920l9630 -7770c1380,-9510 7310,-17620 17790,-24340 10520,-6670 21990,-10020 34420,-10020l6450 0c2270,0 4420,420 6460,1260l890 5820 180 6520 -1250 1820c-4450,-2150 -8940,-3230 -13510,-3230 -9470,0 -17590,2930 -24370,8780 -6790,5860 -10160,13450 -10160,22780 0,1540 320,2890 980,4030 660,1130 1760,1760 3350,1880 5260,0 11800,-5320 19600,-15960 1310,-1670 2660,-3610 4060,-5820 1370,-2210 2780,-4570 4210,-7080l4510 1430 7030 0 3930 0 -6270 12460c-3110,6060 -4840,10100 -5190,12100l1430 1070c1190,-470 4000,-2230 8420,-5320 2630,-1880 5860,-4120 9690,-6710 950,-600 2080,-1350 3400,-2300 710,0 1250,1010 1610,3040l540 5380c0,4180 -4480,9050 -13440,14610 -8970,5560 -15720,8330 -20260,8330 -2510,0 -4330,-750 -5460,-2230 -1140,-1500 -1710,-3630 -1710,-6370 -3460,3400 -6630,5680 -9500,6840 -2870,1170 -6810,1760 -11830,1760 -6450,0 -11000,-2920 -13620,-8750 -930,-2050 -1620,-4590 -2070,-7630 -2330,2730 -5820,5570 -10480,8530 -8720,5220 -15900,7850 -21510,7850 -2750,0 -5170,-530 -7260,-1610 -2090,-1080 -3130,-2960 -3130,-5700 0,-2040 1850,-7150 5550,-15360l7530 -16220c-2510,1310 -8000,5470 -16490,12490l-20790 17470c-7650,5950 -12610,8930 -14880,8930 -1320,0 -2510,-470 -3590,-1430 -1070,-930 -1610,-2120 -1610,-3560 0,-2120 900,-5430 2690,-9940l2510 -5860 -3400 2690 -1970 1430c-2690,3580 -7300,6940 -13820,10080 -9550,4390 -18220,6590 -25990,6590 -6930,0 -12300,-1820 -16120,-5430 -3240,-3090 -5110,-7400 -5610,-12910 -2050,3350 -5440,6730 -10170,10160 -7890,5460 -14880,8180 -20970,8180 -3110,0 -5530,-660 -7260,-1940 -1730,-1310 -2600,-3460 -2600,-6420l1800 -6930 2320 -7650 -7730 5560c-2600,3850 -7370,7440 -14310,10790 -9560,4390 -18230,6590 -25990,6590 -6930,0 -12320,-1820 -16140,-5430 -3820,-3650 -5740,-9000 -5740,-16020l0 -8210 0 0zm38000 -22140c-4170,0 -8540,2130 -13080,6400 -3470,3430 -6270,7640 -8420,12600 3940,0 8960,-1430 15050,-4270 7050,-3200 10580,-6510 10580,-9950 0,-3200 -1370,-4780 -4130,-4780zm106660 0c-4180,0 -8540,2130 -13080,6400 -3470,3430 -6280,7640 -8430,12600 3940,0 8960,-1430 15060,-4270 7050,-3200 10580,-6510 10580,-9950 0,-3200 -1380,-4780 -4130,-4780zm79240 74390l2450 6930 7350 190 -5840 4470 2100 7050 -6060 -4170 -6050 4170 2090 -7050 -5830 -4470 7340 -190 2450 -6930zm21050 0l2450 6930 7340 190 -5830 4470 2090 7050 -6050 -4170 -6050 4170 2080 -7050 -5830 -4470 7350 -190 2450 -6930zm21040 0l2450 6930 7350 190 -5840 4470 2090 7050 -6050 -4170 -6050 4170 2090 -7050 -5830 -4470 7340 -190 2450 -6930zm-234270 30800c0,-7630 2120,-13570 6370,-17810 4260,-4260 10180,-6380 17780,-6380 7780,0 13780,2080 17990,6260 4210,4180 6310,10030 6310,17550 0,5470 -910,9930 -2750,13430 -1850,3490 -4510,6210 -7980,8160 -3490,1950 -7820,2920 -13010,2920 -5270,0 -9630,-840 -13090,-2510 -3450,-1690 -6260,-4350 -8400,-7990 -2140,-3620 -3220,-8170 -3220,-13630l0 0zm14430 30c0,4720 880,8110 2630,10170 1760,2060 4160,3090 7180,3090 3110,0 5530,-1020 7220,-3030 1710,-2020 2560,-5630 2560,-10870 0,-4390 -890,-7600 -2670,-9630 -1780,-2030 -4190,-3050 -7240,-3050 -2910,0 -5260,1040 -7030,3090 -1770,2060 -2650,5480 -2650,10230l0 0zm36840 -23440l43950 0 0 11560 -14760 0 0 35200 -14430 0 0 -35200 -14760 0 0 -11560 0 0zm50420 0l38660 0 0 9990 -24160 0 0 7450 22400 0 0 9530 -22400 0 0 9210 24880 0 0 10580 -39380 0 0 -46760 0 0z"/>
 </g>
</svg>
