<svg width="409" height="175" viewBox="0 0 409 175" xmlns="http://www.w3.org/2000/svg">
<path d="M108.753 134.516H121.002V148.417H134.411V134.516H146.712V174.326H134.411V158.198H121.002V174.326H108.753V134.516ZM83.8061 108.229L81.5296 105.783C81.5296 102.044 82.2349 98.0984 83.6589 93.954L87.7622 81.0587L68.6001 82.1263C56.2299 100.036 39.1903 108.987 17.4946 108.987C12.6271 108.987 8.56798 107.92 5.32253 105.783C1.77596 103.37 0 99.6563 0 94.694C0 83.8574 7.90685 76.3542 23.7286 72.1775C34.106 69.5063 48.6737 68.6952 60.8404 68.6952C64.8942 61.752 68.6001 52.9997 71.9419 42.4197L80.6129 15.552C81.2218 14.0277 82.9469 13.0621 85.7882 12.6566L94.9129 12.0455L95.9782 13.8733C95.9782 19.6777 93.8998 28.5266 89.7376 40.4321C85.5821 52.3376 81.5738 61.4431 77.7261 67.7819L81.6514 68.0841C85.5058 68.0841 89.2317 67.4731 92.88 66.2241L100.64 41.9564C104.898 30.1032 109.311 20.6943 113.896 13.6987C119.879 4.56778 126.042 0.0110474 132.327 0.0110474L133.848 2.75879C133.848 4.05879 133.443 5.3776 132.635 6.70447L130.352 10.4944C126.601 18.2998 122.9 26.9244 119.245 36.3387L109.818 63.0452L116.967 60.9086C117.879 61.3209 118.642 62.4852 119.245 64.4231C119.854 66.353 120.412 69.4096 120.918 73.5796C119.707 74.6996 116.916 75.7687 112.556 76.7853L104.186 78.7675C103.379 81.0063 102.493 84.4685 101.526 89.1474C100.563 93.8264 99.6265 97.5908 98.7165 100.442C97.3072 104.821 97.176 106.887 92.9322 108.074L89.7376 108.376L83.8061 108.229ZM20.9903 96.7796C26.262 96.7796 31.3089 95.5575 36.1242 93.0918C40.9408 90.6207 45.4751 87.2162 49.7403 82.8918C42.8921 82.8918 36.6234 83.5781 29.5061 84.8486C18.9628 86.6562 13.6924 89.3274 13.6924 92.8608C13.6924 94.3596 14.3977 95.4286 15.8217 96.0141C17.136 96.4197 18.1236 96.6507 18.7834 96.7017C19.4446 96.7541 20.182 96.7796 20.9903 96.7796ZM126.394 83.7285C126.394 75.5108 130.551 68.3352 138.869 62.2609C146.576 56.5842 154.639 53.733 163.053 53.733C171.973 53.733 176.436 58.2132 176.436 67.1709C176.436 71.7464 174.102 76.0708 169.439 80.1441C165.893 83.194 161.429 85.7886 156.056 87.924L150.578 89.9129C148.552 90.5186 146.673 90.8275 144.954 90.8275C143.838 90.8275 142.972 90.9041 142.363 91.0518C141.761 91.2062 141.401 91.6118 141.299 92.3263C141.299 93.7995 142.165 95.0485 143.89 96.0396C145.814 96.8306 147.642 97.2362 149.36 97.2362C152.707 97.2362 157.069 95.9617 162.442 93.4463C164.976 92.3518 167.31 91.1297 169.439 89.8364C171.568 88.5109 173.397 87.2162 174.916 85.8907C176.93 83.895 178.965 81.8309 180.977 79.8607C189.365 71.8485 193.777 67.3186 194.181 66.302L199.786 48.3208C203.84 35.5208 207.719 25.0442 211.471 16.9299C216.313 5.66097 220.115 0.0110474 222.853 0.0110474C224.656 0.0110474 225.945 0.725514 226.708 2.14773C227.465 3.56995 227.849 5.22316 227.849 7.16108C227.849 14.4588 225.361 23.6932 220.391 34.8587L205.942 66.6619C200.876 78.0074 198.336 86.5286 198.336 92.1974L199.1 94.334C201.531 93.723 204.679 91.9731 208.533 89.0695L216.939 82.3036C217.395 74.6795 221.536 67.982 229.369 62.2609C237.072 56.5842 245.132 53.733 253.553 53.733C262.474 53.733 266.938 58.2132 266.938 67.1709C266.938 71.7464 264.602 76.0708 259.941 80.1441C256.394 83.194 251.931 85.7886 246.556 87.924L241.08 89.9129C239.054 90.5186 237.175 90.8275 235.449 90.8275C234.34 90.8275 233.474 90.9041 232.865 91.0518C232.255 91.2062 231.903 91.6118 231.8 92.3263C231.8 93.7995 232.666 95.0485 234.384 96.0396C236.315 96.8306 238.137 97.2362 239.862 97.2362C243.209 97.2362 247.569 95.9617 252.944 93.4463C255.478 92.3518 257.812 91.1297 259.941 89.8364C262.07 88.5109 263.897 87.2162 265.417 85.8907L267.547 83.7809L269.094 82.6595C270.032 81.5112 271.239 80.2126 272.715 78.7675L281.54 70.6774C283.463 68.7475 285.06 66.913 286.33 65.1819C287.6 63.4575 288.691 61.2685 289.601 58.6174C290.092 57.3309 290.275 56.0591 291.73 55.5675H304.658L294.468 77.853C295.413 78.3217 314.913 63.0869 317.889 61.063C324.181 56.7896 328.387 54.6543 330.516 54.6543C332.844 54.6543 334.775 55.0585 336.294 55.8764C337.814 56.6876 338.577 58.2119 338.577 60.4519C338.577 62.4852 336.422 67.6785 332.113 76.0184C330.334 79.4632 323.284 91.0034 324.739 94.6429C326.457 94.6429 329.701 92.9629 334.467 89.6041L342.648 82.9845C343.819 74.8877 348.847 67.982 357.739 62.2609C366.667 56.5842 376.402 53.733 386.944 53.733H392.422C394.345 53.733 396.173 54.0943 397.899 54.8087L398.655 59.763L398.809 65.3109C397.021 67.9176 391.731 64.1143 386.284 64.1143C378.249 64.1143 371.354 66.6109 365.602 71.592C359.843 76.5785 356.983 83.0396 356.983 90.982C356.983 93.3939 357.904 95.9094 360.658 96.0141C365.122 96.0141 370.669 91.4896 377.287 82.4285C380.084 78.7353 381.888 75.6881 384.309 71.4443L397.437 72.6597L392.114 83.2719C389.478 88.433 388.01 91.8697 387.708 93.5752C390.564 95.728 401.263 86.2184 404.286 84.2375C405.093 83.7285 406.056 83.0919 407.172 82.2808C407.781 82.2808 408.236 83.143 408.544 84.8741L409 89.4496C409 93.0152 405.196 97.1597 397.591 101.89C389.985 106.626 384.258 108.987 380.404 108.987C378.275 108.987 376.729 108.351 375.767 107.083C374.804 105.808 374.317 103.999 374.317 101.664C371.381 104.559 368.694 106.497 366.256 107.489C363.826 108.48 360.478 108.987 356.22 108.987C347.611 108.987 344.056 102.886 342.907 95.0391C340.93 97.3625 337.965 99.7839 334.011 102.301C326.611 106.747 320.524 108.987 315.76 108.987C313.431 108.987 311.373 108.531 309.604 107.616C307.826 106.696 306.942 105.094 306.942 102.757C306.942 101.026 308.513 96.6762 311.655 89.6806L318.043 75.8707C315.914 76.9841 311.251 80.5242 304.05 86.5018L286.408 101.381C279.917 106.445 275.71 108.987 273.781 108.987C272.664 108.987 271.651 108.582 270.74 107.765C269.83 106.98 269.368 105.963 269.368 104.739C269.368 102.932 270.131 100.113 271.651 96.2706L273.781 91.2841L270.894 93.5752L269.229 94.788C266.942 97.8365 263.034 100.698 257.504 103.37C246.531 108.549 230.261 112.45 221.764 104.361C219.015 101.733 217.43 98.0608 217.01 93.3657C215.266 96.2182 212.39 99.103 208.379 102.019C201.685 106.671 195.752 108.987 190.583 108.987C187.947 108.987 185.895 108.427 184.42 107.334C182.952 106.214 182.215 104.386 182.215 101.864L183.74 95.9617L185.716 89.4496C179.316 94.0708 174.217 99.8859 167.009 103.37C156.03 108.552 139.758 112.447 131.262 104.361C128.018 101.258 126.394 96.7031 126.394 90.7241V83.7285ZM158.64 64.8798C155.094 64.8798 151.393 66.6874 147.539 70.3242C144.596 73.2452 142.216 76.8363 140.388 81.0587C143.737 81.0587 147.994 79.8352 153.164 77.4219C159.146 74.6996 162.141 71.8753 162.141 68.9463C162.141 66.2241 160.974 64.8798 158.64 64.8798ZM249.141 64.8798C245.594 64.8798 241.894 66.6874 238.041 70.3242C235.096 73.2452 232.717 76.8363 230.89 81.0587C234.237 81.0587 238.496 79.8352 243.664 77.4219C249.648 74.6996 252.643 71.8753 252.643 68.9463C252.643 66.2241 251.475 64.8798 249.141 64.8798ZM316.382 128.223L318.459 134.124L324.693 134.285L319.743 138.088L321.519 144.093L316.382 140.541L311.244 144.093L313.022 138.088L308.071 134.285L314.304 134.124L316.382 128.223ZM334.242 128.223L336.321 134.124L342.553 134.285L337.603 138.088L339.379 144.093L334.242 140.541L329.106 144.093L330.875 138.088L325.931 134.285L332.164 134.124L334.242 128.223ZM352.097 128.223L354.174 134.124L360.408 134.285L355.457 138.088L357.233 144.093L352.097 140.541L346.959 144.093L348.736 138.088L343.785 134.285L350.018 134.124L352.097 128.223ZM153.304 154.447C153.304 141.451 160.859 133.847 173.801 133.847C186.844 133.847 194.419 141.09 194.419 154.125C194.419 158.778 193.643 162.582 192.084 165.56C190.519 168.534 188.261 170.85 185.312 172.51C182.355 174.165 178.68 174.995 174.274 174.995C166.243 174.995 160.024 172.833 156.036 166.056C154.221 162.974 153.304 159.099 153.304 154.447ZM165.553 154.473C165.553 158.488 166.297 161.378 167.785 163.128C169.28 164.885 171.313 165.761 173.877 165.761C176.514 165.761 178.565 164.898 180.001 163.186C181.451 161.462 182.176 158.385 182.176 153.926C182.176 150.187 181.418 147.452 179.912 145.727C178.398 143.996 176.353 143.134 173.769 143.134C171.293 143.134 169.299 144.015 167.804 145.766C166.297 147.516 165.553 150.425 165.553 154.473ZM196.811 134.516H234.102V144.356H221.578V174.326H209.335V144.356H196.811V134.516ZM239.598 134.516H272.401V143.017H251.899V149.363H270.907V157.478H251.899V165.316H273.011V174.326H239.598V134.516ZM279.616 134.516H291.859V164.537H311.033V174.326H279.616V134.516Z" />
</svg>
