<svg viewBox="0 0 852 74" fill="none" xmlns="http://www.w3.org/2000/svg">
<path d="M51.725 2.57138C50.9815 8.02395 48.6704 10.7502 44.7668 10.7502C43.4037 10.7502 40.7765 10.1368 36.8978 8.91619C33.0128 7.69555 29.6793 7.08834 26.8601 7.08834C23.2416 7.08834 20.1001 8.43909 17.4482 11.1406C14.8025 13.8235 13.4765 16.178 13.4765 18.1855C13.4765 20.1497 14.6971 21.8908 17.1384 23.4213C18.1236 24.0595 18.6193 24.6295 18.6193 25.1314C18.6193 25.8253 17.9191 26.7548 16.5002 27.9258C15.0999 29.0969 14.0342 29.6793 13.3216 29.6793C12.1258 29.6793 11.0105 28.9915 9.96952 27.6284C8.93477 26.2529 8.4143 24.7596 8.4143 23.1362C8.4143 19.9948 9.69689 16.5684 12.2559 12.8383C14.8149 9.12685 18.1608 6.10316 22.2936 3.75484C26.4202 1.40032 30.7574 0.235452 35.2992 0.235452C38.3662 0.235452 41.2722 0.687767 43.9985 1.59859C46.7372 2.50322 48.4535 2.96174 49.1413 2.96174C49.7485 2.96174 50.2689 2.77585 50.6965 2.41648L50.9319 2.33593L51.725 2.57138ZM37.4678 14.2572C38.453 14.2572 38.9487 14.567 38.9487 15.2052L38.0131 20.2798L37.8582 29.7041C37.728 32.7836 37.2633 35.6214 36.4578 38.2237C35.7143 40.634 34.692 42.8274 33.366 44.8164C32.1825 46.6442 30.745 48.2552 29.0659 49.6617C27.5231 50.9567 25.8253 52.0472 23.9789 52.9457C22.2502 53.7635 20.4347 54.3708 18.5387 54.7735C16.7852 55.1763 15.0193 55.3869 13.2411 55.3869C9.11446 55.3869 5.86771 54.4885 3.51938 52.7102C1.17106 50.9195 0 49.1908 0 47.5179C0 46.5575 0.867454 45.3245 2.60856 43.8064C4.33727 42.2822 5.64465 41.5201 6.54308 41.5201C7.63359 41.5201 8.17885 42.53 8.17885 44.5561C8.17885 47.8525 8.71171 49.9839 9.78984 50.9567C10.868 51.9295 12.3055 52.4252 14.1147 52.4252C17.0207 52.4252 19.5797 51.4896 21.7731 49.6307C23.9665 47.7781 25.4474 45.5537 26.1971 42.9699C26.9654 40.3862 27.3558 36.588 27.3806 31.5505C27.4053 26.5131 27.7833 23.0433 28.5082 21.1473C29.227 19.2513 30.5468 17.6279 32.4799 16.2772C34.4069 14.9326 36.0675 14.2572 37.4678 14.2572ZM97.1858 46.1114C95.9652 47.1275 94.7631 47.8401 93.5425 48.2676C92.3219 48.6951 91.3863 48.9182 90.7233 48.9182C88.8768 48.9182 87.0614 48.2056 85.2955 46.7867C80.6732 52.5119 75.9208 55.3869 71.0259 55.3869C67.4321 55.3869 64.8608 53.398 63.3055 49.4263C59.9163 53.398 56.242 55.3869 52.3199 55.3869C49.7485 55.3869 47.7347 54.5381 46.2725 52.8403C44.804 51.1488 44.0605 48.8129 44.0605 45.8449C44.0605 42.623 44.519 39.3638 45.4112 36.0675C46.3096 32.7526 47.6852 28.7065 49.5316 23.9169L59.5135 22.0581L56.7191 30.5592C54.3584 37.9511 53.1749 43.0257 53.1749 45.8263C53.1749 47.1399 53.4909 48.2304 54.1229 49.0607C54.7611 49.9034 55.5542 50.3185 56.527 50.3185C58.5531 50.3185 60.5793 48.7509 62.6054 45.6095C62.6054 41.6068 63.3303 37.4554 64.7678 33.1553L67.8845 23.9169L78.1018 22.0457L73.8203 35.2496C72.4448 39.5063 71.757 42.8708 71.757 45.3616C71.757 46.8673 72.0792 48.0755 72.7422 48.9678C73.4052 49.8662 74.285 50.3185 75.3755 50.3185C76.7263 50.3185 78.0027 49.829 79.1923 48.8253C80.3882 47.8401 81.7389 46.3344 83.2322 44.3331C81.8938 41.8546 81.2185 39.2833 81.2185 36.6375C81.2185 32.8083 82.1665 29.4191 84.0749 26.4697C85.9709 23.5266 88.1271 22.0457 90.5002 22.0457C92.1484 22.0457 92.9848 23.2911 92.9848 25.7944C92.9848 31.185 90.9154 37.2881 86.7764 44.1038C88.0466 45.2315 89.3849 45.8016 90.8038 45.8016C92.5016 45.8016 94.633 44.4508 97.1858 41.7493V46.1114ZM131.295 46.13C130.007 47.2948 128.749 48.1127 127.54 48.596C126.32 49.0731 125.359 49.3086 124.659 49.3086C122.844 49.3086 121.022 48.596 119.232 47.1771C115.582 52.6421 111.393 55.3869 106.678 55.3869C103.729 55.3869 101.356 54.2778 99.5279 52.0596C97.6939 49.8414 96.7831 46.9045 96.7831 43.2426C96.7831 37.4306 98.8402 32.4552 102.954 28.2914C107.056 24.1214 111.964 22.0457 117.676 22.0457C119.833 22.0457 121.4 22.2812 122.404 22.7583C123.414 23.223 124.021 23.7868 124.257 24.4188C124.48 25.0694 124.597 25.8749 124.597 26.8477C124.597 31.6373 123.296 37.5174 120.712 44.4756C122.001 45.6714 123.364 46.2725 124.777 46.2725C126.462 46.2725 128.643 44.7668 131.295 41.7493V46.13ZM118.779 24.6915C118.389 24.5366 117.844 24.4622 117.143 24.4622C113.847 24.4622 111.263 26.1971 109.392 29.6917C107.533 33.1677 106.604 37.2447 106.604 41.9104C106.604 44.4942 107.007 46.5017 107.818 47.933C108.624 49.3705 109.758 50.0893 111.208 50.0893C113.004 50.0893 114.962 48.4225 117.063 45.089C114.665 42.0653 113.457 38.8062 113.457 35.3116C113.457 31.2097 115.235 27.6656 118.779 24.6915ZM130.986 3.89735C130.292 6.66081 128.879 9.08968 126.735 11.1902C124.597 13.2968 121.282 15.5894 116.79 18.074L114.467 17.2685C118.222 12.8941 120.793 8.7365 122.181 4.80198L130.986 3.89735ZM158.868 7.16889C158.391 13.3464 155.819 16.4382 151.16 16.4382C148.991 16.4382 147.071 15.6947 145.391 14.2262C147.603 11.4256 148.898 8.98434 149.301 6.93343C151.327 8.17885 153.013 8.80466 154.351 8.80466C155.869 8.80466 157.375 8.2594 158.868 7.16889ZM159.729 46.037C157.338 48.4225 154.363 50.5664 150.832 52.4624C149.927 59.3958 148.161 64.7182 145.565 68.4297C142.95 72.1474 140.292 74 137.578 74C135.874 74 134.437 73.2998 133.241 71.8871C132.045 70.4682 131.45 68.7333 131.45 66.6638C131.45 61.6698 134.827 57.475 141.587 54.061L144.332 31.1726C139.047 37.7652 134.709 42.6849 131.308 45.9565H130.44V42.53C133.811 39.3142 138.359 33.9856 144.053 26.5627L146.42 23.5266C149.078 23.223 152.065 22.7335 155.361 22.0457C154.221 28.0807 152.87 36.9907 151.315 48.7881C153.676 47.6232 156.458 45.2563 159.649 41.675L159.729 46.037ZM141.252 57.6051C139.133 58.5903 137.473 59.9287 136.24 61.6016C135.019 63.2931 134.412 65.0157 134.412 66.7815C134.412 67.9278 134.672 68.9006 135.205 69.6937C135.732 70.4806 136.358 70.8834 137.07 70.8834C138.811 70.8834 139.951 68.6652 140.484 64.2411L141.252 57.6051ZM248.154 46.037C245.062 49.259 242.255 51.6197 239.739 53.1253C237.205 54.631 234.621 55.3869 231.963 55.3869C228.977 55.3869 226.455 54.0733 224.416 51.44C222.384 48.8005 221.356 44.9465 221.356 39.8843C221.356 37.7776 221.641 35.0265 222.198 31.6249C218.406 31.9905 216.07 32.1949 215.215 32.2507C213.58 40.5597 210.76 46.4893 206.739 50.0459C202.712 53.6024 198.17 55.3869 193.095 55.3869C189.34 55.3869 186.236 54.5133 183.795 52.7846C181.366 51.0497 180.145 49.3705 180.145 47.7533C180.145 46.5575 181.056 45.1943 182.859 43.6639C184.681 42.1273 185.926 41.3652 186.614 41.3652C187.599 41.3652 188.095 42.4247 188.095 44.5561C188.095 49.8042 189.861 52.4252 193.393 52.4252C195.989 52.4252 198.145 50.9815 199.855 48.0879C201.571 45.2067 202.947 40.4419 204 33.7811C200.933 34.2087 197.885 35.6647 194.855 38.168C194.663 37.8829 194.483 36.7924 194.328 34.8964C197.011 31.9657 200.568 29.9148 204.986 28.7437C205.841 24.6295 206.931 21.2774 208.282 18.6812C209.62 16.0975 213.022 12.101 218.487 6.69798C215.853 7.73893 213.697 8.2594 212.018 8.2594C210.928 8.2594 209.564 7.97438 207.929 7.39814C206.293 6.8281 204.986 6.54308 204 6.54308C201.844 6.54308 200.091 7.32379 198.715 8.87901C197.352 10.4404 196.664 12.0328 196.664 13.6562C196.664 15.2796 197.519 16.7604 199.236 18.0988C200.01 18.5759 200.4 19.0344 200.4 19.4743C200.4 20.2241 199.892 21.1721 198.882 22.306C197.872 23.4336 196.937 23.9913 196.038 23.9913C195.066 23.9913 194.142 23.2911 193.312 21.8784C192.482 20.4719 192.067 18.9167 192.067 17.2128C192.067 13.4641 193.907 9.6845 197.581 5.90488C201.255 2.13146 204.905 0.235452 208.53 0.235452C209.31 0.235452 210.828 0.557649 213.084 1.20824C215.345 1.85883 216.876 2.18103 217.681 2.18103C219.305 2.18103 220.891 1.48087 222.434 0.0805493C224.367 1.09051 225.327 1.72871 225.327 1.97036C225.327 2.33593 224.578 3.27154 223.072 4.81437C221.548 6.351 220.315 8.53203 219.342 11.3698C218.369 14.2015 217.328 19.4991 216.225 27.2628C219.137 27.1327 221.665 26.8973 223.846 26.5627C224.98 22.6282 226.213 19.3194 227.546 16.6303C228.896 13.9412 230.445 11.2273 232.168 8.50105C233.909 5.77476 235.247 4.11421 236.17 3.50699C237.088 2.89358 239.052 2.19342 242.063 1.41271C245.062 0.625806 246.58 0.235452 246.605 0.235452C246.908 0.235452 247.063 0.309805 247.063 0.464707C247.063 0.842669 246.487 1.82785 245.347 3.41405C244.194 5.00025 242.546 7.84426 240.39 11.9709C238.246 16.0851 236.468 20.4719 235.068 25.1624C237.781 24.6915 240.545 23.4708 243.389 21.5005C243.711 21.6554 243.909 21.8784 243.984 22.1634C244.064 22.4609 244.101 23.1858 244.101 24.3569C241.945 26.9902 238.482 28.8738 233.704 29.9891C232.614 34.9336 232.069 38.4282 232.069 40.4791C232.069 42.9452 232.614 44.9093 233.692 46.3592C234.783 47.8029 236.232 48.5278 238.066 48.5278C239.529 48.5278 240.997 48.0631 242.478 47.1151C243.959 46.1795 245.855 44.3641 248.154 41.675V46.037ZM282.257 46.13C280.974 47.2948 279.71 48.1127 278.502 48.596C277.288 49.0731 276.327 49.3086 275.621 49.3086C273.806 49.3086 271.99 48.596 270.193 47.1771C266.55 52.6421 262.355 55.3869 257.64 55.3869C254.697 55.3869 252.318 54.2778 250.49 52.0596C248.656 49.8414 247.751 46.9045 247.751 43.2426C247.751 37.4306 249.802 32.4552 253.916 28.2914C258.018 24.1214 262.925 22.0457 268.638 22.0457C270.794 22.0457 272.362 22.2812 273.366 22.7583C274.376 23.223 274.989 23.7868 275.218 24.4188C275.441 25.0694 275.559 25.8749 275.559 26.8477C275.559 31.6373 274.258 37.5174 271.674 44.4756C272.963 45.6714 274.326 46.2725 275.739 46.2725C277.43 46.2725 279.611 44.7668 282.257 41.7493V46.13ZM269.741 24.6915C269.351 24.5366 268.805 24.4622 268.105 24.4622C264.809 24.4622 262.225 26.1971 260.354 29.6917C258.501 33.1677 257.566 37.2447 257.566 41.9104C257.566 44.4942 257.968 46.5017 258.786 47.933C259.592 49.3705 260.719 50.0893 262.176 50.0893C263.966 50.0893 265.924 48.4225 268.031 45.089C265.627 42.0653 264.418 38.8062 264.418 35.3116C264.418 31.2097 266.197 27.6656 269.741 24.6915ZM304.148 46.1114C300.951 49.2838 298.187 51.6197 295.864 53.1253C293.528 54.631 291.31 55.3869 289.203 55.3869C287.022 55.3869 285.256 54.4637 283.905 52.6173C282.542 50.777 281.867 48.3482 281.867 45.3369C281.867 42.6849 282.517 39.2089 283.818 34.8716L285.467 29.0535L282.493 29.2084L283.713 23.2106L287.332 23.0557L290.919 11.2025L301.124 9.11446L297.159 22.3431L302.512 22.0457L301.254 27.8886L295.368 28.3533L292.828 36.9597C291.954 39.9215 291.514 42.2822 291.514 44.0605C291.514 45.2563 291.811 46.2415 292.412 46.9974C292.995 47.7657 293.776 48.1375 294.711 48.1375C296.006 48.1375 297.276 47.7224 298.553 46.9045C299.823 46.0742 301.682 44.3641 304.148 41.7493V46.1114ZM332.563 46.1114C329.347 49.2838 326.466 51.6197 323.895 53.1253C321.336 54.631 318.504 55.3869 315.412 55.3869C311.974 55.3869 309.198 54.2778 307.079 52.072C304.966 49.8538 303.9 46.9478 303.9 43.3479C303.9 37.9635 305.771 33.0934 309.495 28.7313C313.219 24.3816 317.352 22.2006 321.893 22.2006C324.242 22.2006 326.138 22.8078 327.557 24.0285C328.969 25.2367 329.682 26.8353 329.682 28.8242C329.682 34.0662 324.124 38.3229 313.002 41.5944C314.012 46.5823 316.664 49.0731 320.933 49.0731C322.594 49.0731 324.192 48.6208 325.71 47.7224C327.216 46.8301 329.515 44.8412 332.563 41.7493V46.1114ZM312.705 39.023C319.142 37.2076 322.358 33.8431 322.358 28.9544C322.358 26.5255 321.478 25.3173 319.725 25.3173C318.064 25.3173 316.478 26.5875 314.96 29.1217C313.454 31.6621 312.705 34.9646 312.705 39.023ZM357.738 46.1114C354.299 49.2838 351.275 51.6197 348.679 53.1253C346.064 54.631 343.598 55.3869 341.238 55.3869C338.524 55.3869 336.343 54.3336 334.682 52.2269C333.022 50.1264 332.191 47.2948 332.191 43.7507C332.191 38.4158 333.344 32.0276 335.643 24.5737C337.941 17.126 340.742 10.2422 344.032 3.95931L353.686 0.390354C353.989 0.285021 354.219 0.235452 354.38 0.235452C355.105 0.235452 355.712 0.768316 356.183 1.84024C356.647 2.91836 356.883 4.37445 356.883 6.20849C356.883 11.3698 355.687 16.3825 353.314 21.2278C350.935 26.067 347.211 31.2469 342.149 36.7429C341.95 39.3886 341.845 41.2041 341.845 42.1954C341.845 44.4012 342.248 46.1547 343.066 47.4373C343.871 48.7385 344.949 49.3891 346.3 49.3891C347.663 49.3891 349.119 48.8934 350.662 47.9082C352.211 46.9169 354.572 44.8659 357.738 41.7493V46.1114ZM343.171 31.2345C346.393 27.6532 349.001 23.6443 351.003 19.1893C352.998 14.7467 354.002 10.9175 354.002 7.72653C354.002 6.77853 353.859 6.02261 353.587 5.45257C353.302 4.88253 352.948 4.59751 352.521 4.59751C351.585 4.59751 350.222 6.93343 348.444 11.6053C346.653 16.2772 344.9 22.8264 343.171 31.2345ZM414.538 46.1114C408.682 52.2951 403.657 55.3869 399.481 55.3869C397.79 55.3869 396.414 54.7859 395.379 53.5901C394.338 52.4004 393.818 50.7894 393.818 48.7881C393.818 46.0618 394.933 41.898 397.17 36.272C398.36 33.2483 398.961 31.3275 398.961 30.5096C398.961 29.6917 398.632 29.289 398 29.289C397.647 29.289 397.182 29.4686 396.594 29.8218C396.067 30.1874 395.441 30.6769 394.729 31.3151C394.09 31.8975 393.39 32.6101 392.597 33.4465C391.922 34.1591 391.184 34.977 390.391 35.8816L388.26 38.3662C387.324 39.5187 386.742 40.727 386.506 41.9972C386.135 44.1534 385.887 46.1423 385.757 47.9454C385.676 49.2962 385.639 51.1116 385.639 53.398L377.249 55.3869C376.977 51.9543 376.834 49.4139 376.834 47.7347C376.834 43.6639 377.318 39.7913 378.266 36.1418C379.214 32.4985 380.732 28.3905 382.832 23.8364L392.102 22.0457C390.156 27.238 388.873 31.3523 388.26 34.3636C392.418 29.7289 395.726 26.5131 398.167 24.7348C400.621 22.938 402.79 22.0457 404.698 22.0457C405.981 22.0457 407.059 22.5352 407.933 23.5142C408.788 24.487 409.215 25.7076 409.215 27.1699C409.215 29.5988 408.125 33.6262 405.931 39.2461C404.426 43.1001 403.67 45.6095 403.67 46.762C403.67 48.311 404.295 49.0731 405.541 49.0731C407.4 49.0731 410.399 46.6318 414.538 41.7493V46.1114ZM455.122 46.1114C451.07 49.9591 448.164 52.4748 446.41 53.6334C444.657 54.7983 442.996 55.3869 441.398 55.3869C437.389 55.3869 435.493 51.8428 435.728 44.7544C433.194 48.3853 430.858 51.062 428.714 52.7846C426.577 54.5133 424.365 55.3869 422.084 55.3869C419.86 55.3869 417.964 54.3336 416.409 52.2455C414.847 50.1388 414.073 47.5674 414.073 44.5314C414.073 40.7146 415.108 37.0775 417.202 33.6262C419.29 30.1688 421.979 27.3806 425.238 25.2491C428.51 23.1114 431.403 22.0457 433.907 22.0457C437.079 22.0457 439.297 23.4956 440.555 26.4202L448.374 22.0457H450.512L447.141 33.2483C445.388 38.8805 444.514 42.7407 444.514 44.8288C444.514 47.0346 445.295 48.1375 446.838 48.1375C447.829 48.1375 448.92 47.6046 450.097 46.5575C451.293 45.5041 452.966 43.9056 455.122 41.7493V46.1114ZM427.302 48.1375C429.83 48.1375 432.221 45.9689 434.452 41.6502C436.701 37.3253 437.816 33.3412 437.816 29.6917C437.816 28.2604 437.507 27.1575 436.868 26.352C436.23 25.5651 435.387 25.1624 434.322 25.1624C431.794 25.1624 429.39 27.3124 427.134 31.6249C424.86 35.9374 423.733 39.9091 423.733 43.5338C423.733 44.9093 424.067 46.0122 424.743 46.8673C425.406 47.71 426.261 48.1375 427.302 48.1375ZM552.494 46.037C546.818 52.165 541.638 55.2258 536.979 55.2258C534.135 55.2258 531.978 53.8627 530.485 51.124C529.01 48.3853 528.267 44.711 528.267 40.1321C528.267 36.5694 528.992 31.693 530.46 25.4846C531.916 19.2637 533.8 14.0466 536.111 9.80223L538.317 5.84292C535.306 8.98434 532.84 12.4232 530.9 16.178C528.979 19.9143 526.681 25.15 524.01 31.8727C521.333 38.5831 519.32 43.1682 517.944 45.6095C516.581 48.0383 515.274 50.0211 514.01 51.5515C512.752 53.0882 511.637 54.0857 510.651 54.5381C509.679 54.9966 507.975 55.2258 505.533 55.2258C504.585 55.2258 504.121 54.9718 504.121 54.4637C504.121 54.4079 504.288 53.621 504.61 52.072C504.951 50.5292 505.286 48.0507 505.626 44.6367C505.973 41.2226 506.221 35.4293 506.376 27.2504C506.519 19.0716 507.727 12.0638 509.964 6.23327C507.572 8.94717 505.143 15.2548 502.652 25.1747L501.704 28.8986C499.096 39.2213 496.097 46.1919 492.72 49.8042C489.343 53.4228 486.034 55.2258 482.788 55.2258C480.792 55.2258 479.027 54.5938 477.502 53.3174C475.984 52.0596 475.222 50.5911 475.222 48.943C475.222 47.6852 476.127 46.2601 477.948 44.6863C479.776 43.1125 480.923 42.3256 481.4 42.3256C481.957 42.3256 482.323 42.5176 482.503 42.8956C482.67 43.2859 482.905 44.3207 483.178 46.037C483.463 47.7533 483.891 48.8686 484.467 49.3891C485.037 49.9034 485.749 50.1636 486.617 50.1636C488.581 50.1636 490.737 48.2056 493.098 44.2835C495.459 40.3738 497.627 34.314 499.591 26.1351L500.694 21.5252C501.587 17.7704 502.46 14.7901 503.328 12.5533C504.183 10.3227 505.329 8.08591 506.754 5.85531C508.817 2.66432 510.081 0.960395 510.546 0.737336C511.011 0.532864 511.897 0.353178 513.192 0.204471C514.481 0.061961 515.776 0 517.064 0C517.573 0 517.827 0.285021 517.827 0.867454C517.827 1.15247 517.752 1.72871 517.597 2.58377C517.102 6.12794 516.866 9.69689 516.897 13.2658L516.971 23.4584C517.027 32.3374 516.321 39.4939 514.871 44.9465C516.209 43.3231 518.167 39.1284 520.726 32.3808C524.425 22.7954 527.79 15.6204 530.826 10.8122C532.282 8.50105 534.017 6.29524 536.055 4.16997C538.094 2.05091 539.513 0.910826 540.287 0.768316C542.977 0.260236 545.25 0 547.103 0C547.791 0 548.132 0.192079 548.132 0.570041C548.132 1.1153 547.716 2.31114 546.899 4.18237C544.965 8.68693 543.119 14.7343 541.39 22.3431C539.655 29.9395 538.782 35.9869 538.782 40.4915C538.782 45.5971 540.343 48.1375 543.46 48.1375C545.988 48.1375 548.999 45.9874 552.494 41.675V46.037ZM593.078 46.1114C589.026 49.9591 586.12 52.4748 584.366 53.6334C582.613 54.7983 580.952 55.3869 579.354 55.3869C575.345 55.3869 573.449 51.8428 573.684 44.7544C571.15 48.3853 568.814 51.062 566.67 52.7846C564.527 54.5133 562.321 55.3869 560.034 55.3869C557.816 55.3869 555.92 54.3336 554.365 52.2455C552.804 50.1388 552.029 47.5674 552.029 44.5314C552.029 40.7146 553.064 37.0775 555.152 33.6262C557.246 30.1688 559.935 27.3806 563.188 25.2491C566.46 23.1114 569.359 22.0457 571.863 22.0457C575.029 22.0457 577.253 23.4956 578.511 26.4202L586.324 22.0457H588.468L585.091 33.2483C583.338 38.8805 582.47 42.7407 582.47 44.8288C582.47 47.0346 583.251 48.1375 584.794 48.1375C585.779 48.1375 586.87 47.6046 588.053 46.5575C589.249 45.5041 590.922 43.9056 593.078 41.7493V46.1114ZM565.258 48.1375C567.786 48.1375 570.177 45.9689 572.408 41.6502C574.657 37.3253 575.772 33.3412 575.772 29.6917C575.772 28.2604 575.463 27.1575 574.824 26.352C574.186 25.5651 573.344 25.1624 572.278 25.1624C569.75 25.1624 567.346 27.3124 565.084 31.6249C562.816 35.9374 561.682 39.9091 561.682 43.5338C561.682 44.9093 562.023 46.0122 562.699 46.8673C563.362 47.71 564.217 48.1375 565.258 48.1375ZM630.391 46.1114C626.952 49.8786 624.356 52.3694 622.615 53.5777C620.886 54.7859 619.158 55.3869 617.46 55.3869C616.499 55.3869 614.734 54.9718 612.162 54.1353C609.591 53.305 607.645 52.8899 606.332 52.8899C604.683 52.8899 603.475 53.305 602.738 54.1353C601.982 54.9718 601.505 55.3869 601.269 55.3869C599.999 55.3869 599.243 55.3683 598.983 55.3312C598.735 55.294 598.605 55.1886 598.605 55.0461C598.605 54.4885 600.774 51.5515 605.111 46.2725L618.24 30.3113C616.76 30.6149 615.173 30.7698 613.488 30.7698C611.202 30.7698 608.841 30.3919 606.412 29.6235C601.839 36.1976 597.403 41.6874 593.091 46.1114H592.223V42.6849C595.439 39.3762 598.543 35.6771 601.517 31.5629C604.504 27.4611 606.226 24.8773 606.71 23.7992C607.187 22.7335 607.589 22.2006 607.893 22.2006C608.073 22.2006 609.244 22.3679 611.394 22.7087C613.55 23.0433 615.279 23.2106 616.605 23.2106C618.978 23.2106 621.171 23.0433 623.16 22.7087C625.143 22.3679 626.314 22.2006 626.636 22.2006C627.12 22.2006 627.367 22.3183 627.367 22.5662C627.312 23.4708 625.261 26.383 621.184 31.2903L608.94 46.1919C609.956 46.0866 610.799 46.037 611.45 46.037C611.927 46.037 613.575 46.322 616.382 46.8921C619.17 47.4621 620.861 47.7533 621.419 47.7533C622.987 47.7533 624.337 47.332 625.471 46.4893C626.599 45.659 628.235 44.079 630.391 41.7493V46.1114ZM670.976 46.1114C667.623 49.2838 664.835 51.6197 662.574 53.1253C660.312 54.631 658.292 55.3869 656.483 55.3869C654.488 55.3869 652.951 54.5814 651.879 52.9828C650.801 51.3842 650.256 49.2156 650.256 46.4645C647.474 49.513 644.97 51.7622 642.777 53.2183C640.571 54.6558 638.415 55.3869 636.308 55.3869C634.388 55.3869 632.832 54.5938 631.674 52.9952C630.509 51.3966 629.92 49.2404 629.92 46.5017C629.92 41.2474 631.698 33.8183 635.243 24.2267L645.479 22.1758C641.259 34.3636 639.103 42.183 639.035 45.6095C639.035 48.0383 639.958 49.2404 641.786 49.2404C643.124 49.2404 644.76 48.1809 646.736 46.0494C648.694 43.9056 649.927 42.0405 650.411 40.4543L655.392 24.2267L665.752 22.2006C663.367 29.8094 661.719 35.1691 660.82 38.2485C659.94 41.3342 659.482 43.5028 659.482 44.7544C659.482 47.1275 660.3 48.311 661.923 48.311C663.237 48.311 665.195 47.1151 667.778 44.7234L670.976 41.7493V46.1114ZM699.403 46.1114C693.034 52.2951 688.126 55.3869 684.669 55.3869C683.126 55.3869 681.812 54.7363 680.753 53.4228C679.687 52.1278 679.154 50.5044 679.154 48.5836C679.154 44.9961 681.063 40.2065 684.892 34.2087C683.021 35.1691 680.97 35.8444 678.752 36.2224C677.103 39.2833 674.52 42.5858 670.988 46.1114H670.114V42.6849C672.103 40.6092 673.881 38.3786 675.48 35.9869C673.311 35.0265 672.221 33.6138 672.221 31.7178C672.221 29.7846 672.884 27.7028 674.204 25.5093C675.542 23.3035 677.376 22.2006 679.7 22.2006C681.67 22.2006 682.661 23.2106 682.661 25.2243C682.661 26.8105 682.085 29.0659 680.945 32.0152C685.152 31.5629 688.839 28.341 691.98 22.3555L695.432 22.2006L691.912 31.9347C690.45 36.0427 689.502 38.8309 689.074 40.3118C688.641 41.8051 688.424 43.1125 688.424 44.2587C688.424 45.3245 688.672 46.1671 689.161 46.8053C689.657 47.4373 690.32 47.7533 691.162 47.7533C692.073 47.7533 692.941 47.4373 693.783 46.8301C694.614 46.2167 696.497 44.5314 699.403 41.7493V46.1114ZM740 46.1114C735.954 49.9591 733.042 52.4748 731.288 53.6334C729.541 54.7983 727.874 55.3869 726.282 55.3869C722.267 55.3869 720.371 51.8428 720.606 44.7544C718.072 48.3853 715.736 51.062 713.598 52.7846C711.455 54.5133 709.249 55.3869 706.962 55.3869C704.744 55.3869 702.848 54.3336 701.287 52.2455C699.732 50.1388 698.951 47.5674 698.951 44.5314C698.951 40.7146 699.992 37.0775 702.08 33.6262C704.168 30.1688 706.857 27.3806 710.116 25.2491C713.388 23.1114 716.281 22.0457 718.791 22.0457C721.957 22.0457 724.175 23.4956 725.439 26.4202L733.253 22.0457H735.396L732.019 33.2483C730.266 38.8805 729.398 42.7407 729.398 44.8288C729.398 47.0346 730.173 48.1375 731.722 48.1375C732.707 48.1375 733.798 47.6046 734.981 46.5575C736.171 45.5041 737.85 43.9056 740 41.7493V46.1114ZM712.18 48.1375C714.714 48.1375 717.099 45.9689 719.336 41.6502C721.579 37.3253 722.694 33.3412 722.694 29.6917C722.694 28.2604 722.385 27.1575 721.746 26.352C721.114 25.5651 720.272 25.1624 719.206 25.1624C716.672 25.1624 714.274 27.3124 712.012 31.6249C709.738 35.9374 708.611 39.9091 708.611 43.5338C708.611 44.9093 708.945 46.0122 709.621 46.8673C710.284 47.71 711.145 48.1375 712.18 48.1375ZM768.434 46.1114C765.187 49.3086 762.219 51.6445 759.518 53.1377C756.816 54.631 753.997 55.3869 751.066 55.3869C747.764 55.3869 745.037 54.3088 742.9 52.1526C740.756 50.0087 739.69 47.27 739.69 43.9613C739.69 38.5459 741.667 33.5333 745.601 28.9358C749.53 24.3445 753.805 22.0457 758.384 22.0457C760.633 22.0457 762.473 22.6653 763.892 23.9293C765.305 25.1871 766.017 26.8105 766.017 28.8242C766.017 29.5244 765.894 30.0573 765.621 30.4166C765.361 30.7698 764.853 31.1168 764.128 31.4824L759.71 33.5705C759.177 33.8183 758.787 33.9484 758.526 33.9484C758.179 33.9484 758 33.7006 758 33.1863C758 32.988 758.074 32.325 758.229 31.1974C758.384 30.0697 758.464 29.3819 758.464 29.1217C758.464 28.0064 758.229 27.1079 757.764 26.4202C757.293 25.7324 756.661 25.3916 755.881 25.3916C754.022 25.3916 752.336 26.7733 750.794 29.5244C749.257 32.2755 748.495 35.4169 748.495 38.9363C748.495 41.9724 749.22 44.3888 750.664 46.2043C752.101 48.0074 754.034 48.9182 756.451 48.9182C758.502 48.9182 760.435 48.3358 762.256 47.1523C764.06 45.9874 766.123 44.1782 768.434 41.7493V46.1114Z" fill="white"/>
<path d="M806.137 46.1114C800.127 52.2951 795.195 55.3869 791.31 55.3869C789.587 55.3869 788.156 54.7983 787.028 53.6211C785.901 52.4376 785.337 50.9443 785.337 49.1537C785.337 46.1114 786.508 41.8299 788.844 36.2968C790.077 33.3164 790.703 31.3647 790.703 30.46C790.703 29.4191 790.207 28.8986 789.222 28.8986C788.212 28.8986 786.743 29.5864 784.81 30.9619C782.883 32.3499 780.863 34.2335 778.732 36.6128C777.833 41.2722 777.393 46.8673 777.393 53.4104L768.93 55.3869C768.607 52.7226 768.434 49.829 768.434 46.7C768.434 39.1284 769.475 32.0958 771.551 25.5651C773.632 19.0344 776.904 12.1134 781.365 4.802C784.692 3.45125 787.574 2.36074 790.04 1.50567C792.518 0.663004 793.918 0.235474 794.284 0.235474C794.935 0.235474 795.492 0.768338 795.945 1.82787C796.403 2.90599 796.632 4.24435 796.632 5.84294C796.632 8.54444 795.814 11.531 794.166 14.8025C792.518 18.0616 789.922 22.021 786.403 26.6432C789.792 24.6915 792.053 23.4708 793.169 22.969C794.296 22.4609 795.443 22.2006 796.62 22.2006C797.921 22.2006 798.974 22.6653 799.774 23.5886C800.567 24.5242 800.97 25.7448 800.97 27.2752C800.97 29.5616 800.065 33.0934 798.219 37.883C796.378 42.6602 795.467 45.6591 795.467 46.9045C795.467 47.4807 795.635 47.9702 795.976 48.4101C796.31 48.8563 796.713 49.0731 797.165 49.0731C798.789 49.0731 801.775 46.6319 806.137 41.7493V46.1114ZM779.798 30.4415C788.844 19.9019 793.361 12.1258 793.361 7.11314C793.361 5.5951 792.946 4.82678 792.103 4.82678C790.715 4.82678 788.726 7.3362 786.142 12.3303C783.546 17.3429 781.433 23.3841 779.798 30.4415ZM820.314 46.5823C819.199 50.207 818.176 52.5677 817.253 53.6954C816.317 54.8231 814.929 55.3869 813.083 55.3869C810.797 55.3869 808.578 54.5691 806.447 52.9457C807.798 50.8638 809.074 47.8959 810.251 44.0109C811.887 45.3988 813.083 46.2725 813.839 46.6442C814.601 47.0222 815.512 47.2019 816.578 47.2019C817.501 47.2019 818.746 46.9974 820.314 46.5823ZM835.755 46.5823C834.633 50.207 833.611 52.5677 832.687 53.6954C831.752 54.8231 830.364 55.3869 828.517 55.3869C826.237 55.3869 824.013 54.5691 821.888 52.9457C823.238 50.8638 824.509 47.8959 825.692 44.0109C827.328 45.3988 828.517 46.2725 829.273 46.6442C830.042 47.0222 830.946 47.2019 832.012 47.2019C832.935 47.2019 834.181 46.9974 835.755 46.5823ZM851.189 46.5823C850.074 50.207 849.045 52.5677 848.122 53.6954C847.193 54.8231 845.798 55.3869 843.958 55.3869C841.672 55.3869 839.454 54.5691 837.322 52.9457C838.673 50.8638 839.943 47.8959 841.127 44.0109C842.762 45.3988 843.958 46.2725 844.708 46.6442C845.476 47.0222 846.387 47.2019 847.447 47.2019C848.37 47.2019 849.615 46.9974 851.189 46.5823Z" fill="white"/>
</svg>
