<?xml version="1.0" encoding="UTF-8"?>
<!DOCTYPE svg PUBLIC "-//W3C//DTD SVG 1.0//EN" "http://www.w3.org/TR/2001/REC-SVG-20010904/DTD/svg10.dtd">
<!-- Creator: CorelDRAW 2020 (64-Bit) -->
<svg xmlns="http://www.w3.org/2000/svg" xml:space="preserve" width="2902px" height="252px" version="1.0" shape-rendering="geometricPrecision" text-rendering="geometricPrecision" image-rendering="optimizeQuality" fill-rule="evenodd" clip-rule="evenodd"
viewBox="0 0 1373140 119430"
 xmlns:xlink="http://www.w3.org/1999/xlink"
 xmlns:xodm="http://www.corel.com/coreldraw/odm/2003">
 <g id="Warstwa_x0020_1">
  <metadata id="CorelCorpID_0Corel-Layer"/>
  <g id="_2473048683904">
   <path fill="#ffffff" fill-rule="nonzero" d="M83480 4150c-1200,8800 -4930,13200 -11230,13200 -2200,0 -6440,-990 -12700,-2960 -6270,-1970 -11650,-2950 -16200,-2950 -5840,0 -10910,2180 -15190,6540 -4270,4330 -6410,8130 -6410,11370 0,3170 1970,5980 5910,8450 1590,1030 2390,1950 2390,2760 0,1120 -1130,2620 -3420,4510 -2260,1890 -3980,2830 -5130,2830 -1930,0 -3730,-1110 -5410,-3310 -1670,-2220 -2510,-4630 -2510,-7250 0,-5070 2070,-10600 6200,-16620 4130,-5990 9530,-10870 16200,-14660 6660,-3800 13660,-5680 20990,-5680 4950,0 9640,730 14040,2200 4420,1460 7190,2200 8300,2200 980,0 1820,-300 2510,-880l380 -130 1280 380zm-23010 18860c1590,0 2390,500 2390,1530l-1510 8190 -250 15210c-210,4970 -960,9550 -2260,13750 -1200,3890 -2850,7430 -4990,10640 -1910,2950 -4230,5550 -6940,7820 -2490,2090 -5230,3850 -8210,5300 -2790,1320 -5720,2300 -8780,2950 -2830,650 -5680,990 -8550,990 -6660,0 -11900,-1450 -15690,-4320 -3790,-2890 -5680,-5680 -5680,-8380 0,-1550 1400,-3540 4210,-5990 2790,-2460 4900,-3690 6350,-3690 1760,0 2640,1630 2640,4900 0,5320 860,8760 2600,10330 1740,1570 4060,2370 6980,2370 4690,0 8820,-1510 12360,-4510 3540,-2990 5930,-6580 7140,-10750 1240,-4170 1870,-10300 1910,-18430 40,-8130 650,-13730 1820,-16790 1160,-3060 3290,-5680 6410,-7860 3110,-2170 5790,-3260 8050,-3260zm96380 51410c-1970,1640 -3910,2790 -5880,3480 -1970,690 -3480,1050 -4550,1050 -2980,0 -5910,-1150 -8760,-3440 -7460,9240 -15130,13880 -23030,13880 -5800,0 -9950,-3210 -12460,-9620 -5470,6410 -11400,9620 -17730,9620 -4150,0 -7400,-1370 -9760,-4110 -2370,-2730 -3570,-6500 -3570,-11290 0,-5200 740,-10460 2180,-15780 1450,-5350 3670,-11880 6650,-19610l16110 -3000 -4510 13720c-3810,11930 -5720,20120 -5720,24640 0,2120 510,3880 1530,5220 1030,1360 2310,2030 3880,2030 3270,0 6540,-2530 9810,-7600 0,-6460 1170,-13160 3490,-20100l5030 -14910 16490 -3020 -6910 21310c-2220,6870 -3330,12300 -3330,16320 0,2430 520,4380 1590,5820 1070,1450 2490,2180 4250,2180 2180,0 4240,-790 6160,-2410 1930,-1590 4110,-4020 6520,-7250 -2160,-4000 -3250,-8150 -3250,-12420 0,-6180 1530,-11650 4610,-16410 3060,-4750 6540,-7140 10370,-7140 2660,0 4010,2010 4010,6050 0,8700 -3340,18550 -10020,29550 2050,1820 4210,2740 6500,2740 2740,0 6180,-2180 10300,-6540l0 7040zm55050 30c-2080,1880 -4110,3200 -6060,3980 -1970,770 -3520,1150 -4650,1150 -2930,0 -5870,-1150 -8760,-3440 -5890,8820 -12650,13250 -20260,13250 -4760,0 -8590,-1790 -11540,-5370 -2960,-3580 -4430,-8320 -4430,-14230 0,-9380 3320,-17410 9960,-24130 6620,-6730 14540,-10080 23760,-10080 3480,0 6010,380 7630,1150 1630,750 2610,1660 2990,2680 360,1050 550,2350 550,3920 0,7730 -2100,17220 -6270,28450 2080,1930 4280,2900 6560,2900 2720,0 6240,-2430 10520,-7300l0 7070zm-20200 -34600c-630,-250 -1510,-370 -2640,-370 -5320,0 -9490,2800 -12510,8440 -3000,5610 -4500,12190 -4500,19720 0,4170 650,7410 1960,9720 1300,2320 3130,3480 5470,3480 2900,0 6060,-2690 9450,-8070 -3870,-4880 -5820,-10140 -5820,-15780 0,-6620 2870,-12340 8590,-17140zm19700 -33560c-1120,4460 -3400,8380 -6860,11770 -3450,3400 -8800,7100 -16050,11110l-3750 -1300c6060,-7060 10210,-13770 12450,-20120l14210 -1460zm45000 5280c-770,9970 -4920,14960 -12440,14960 -3500,0 -6600,-1200 -9310,-3570 3570,-4520 5660,-8460 6310,-11770 3270,2010 5990,3020 8150,3020 2450,0 4880,-880 7290,-2640zm1390 62730c-3860,3850 -8660,7310 -14360,10370 -1460,11190 -4310,19780 -8500,25770 -4220,6000 -8510,8990 -12890,8990 -2750,0 -5070,-1130 -7000,-3410 -1930,-2290 -2890,-5090 -2890,-8430 0,-8060 5450,-14830 16360,-20340l4430 -36940c-8530,10640 -15530,18580 -21020,23860l-1400 0 0 -5530c5440,-5190 12780,-13790 21970,-25770l3820 -4900c4290,-490 9110,-1280 14430,-2390 -1840,9740 -4020,24120 -6530,43160 3810,-1880 8300,-5700 13450,-11480l130 7040zm-29820 18670c-3420,1590 -6100,3750 -8090,6450 -1970,2730 -2950,5510 -2950,8360 0,1850 420,3420 1280,4700 850,1270 1860,1920 3010,1920 2810,0 4650,-3580 5510,-10720l1240 -10710zm172530 -18670c-4990,5200 -9520,9010 -13580,11440 -4090,2430 -8260,3650 -12550,3650 -4820,0 -8890,-2120 -12180,-6370 -3280,-4260 -4940,-10480 -4940,-18650 0,-3400 460,-7840 1360,-13330 -6120,590 -9890,920 -11270,1010 -2640,13410 -7190,22980 -13680,28720 -6500,5740 -13830,8620 -22020,8620 -6060,0 -11070,-1410 -15010,-4200 -3920,-2800 -5890,-5510 -5890,-8120 0,-1930 1470,-4130 4380,-6600 2940,-2480 4950,-3710 6060,-3710 1590,0 2390,1710 2390,5150 0,8470 2850,12700 8550,12700 4190,0 7670,-2330 10430,-7000 2770,-4650 4990,-12340 6690,-23090 -4950,690 -9870,3040 -14760,7080 -310,-460 -600,-2220 -850,-5280 4330,-4730 10070,-8040 17200,-9930 1380,-6640 3140,-12050 5320,-16240 2160,-4170 7650,-10620 16470,-19340 -4250,1680 -7730,2520 -10440,2520 -1760,0 -3960,-460 -6600,-1390 -2640,-920 -4750,-1380 -6340,-1380 -3480,0 -6310,1260 -8530,3770 -2200,2520 -3310,5090 -3310,7710 0,2620 1380,5010 4150,7170 1250,770 1880,1510 1880,2220 0,1210 -820,2740 -2450,4570 -1630,1820 -3140,2720 -4590,2720 -1570,0 -3060,-1130 -4400,-3410 -1340,-2270 -2010,-4780 -2010,-7530 0,-6050 2970,-12150 8900,-18250 5930,-6090 11820,-9150 17670,-9150 1260,0 3710,520 7350,1570 3650,1050 6120,1570 7420,1570 2620,0 5180,-1130 7670,-3390 3120,1630 4670,2660 4670,3050 0,590 -1210,2100 -3640,4590 -2460,2480 -4450,6000 -6020,10580 -1570,4570 -3250,13120 -5030,25650 4700,-210 8780,-590 12300,-1130 1830,-6350 3820,-11690 5970,-16030 2180,-4340 4680,-8720 7460,-13120 2810,-4400 4970,-7080 6460,-8060 1480,-990 4650,-2120 9510,-3380 4840,-1270 7290,-1900 7330,-1900 490,0 740,120 740,370 0,610 -930,2200 -2770,4760 -1860,2560 -4520,7150 -8000,13810 -3460,6640 -6330,13720 -8590,21290 4380,-760 8840,-2730 13430,-5910 520,250 840,610 960,1070 130,480 190,1650 190,3540 -3480,4250 -9070,7290 -16780,9090 -1760,7980 -2640,13620 -2640,16930 0,3980 880,7150 2620,9490 1760,2330 4100,3500 7060,3500 2360,0 4730,-750 7120,-2280 2390,-1510 5450,-4440 9160,-8780l0 7040zm55040 150c-2070,1880 -4110,3200 -6060,3980 -1960,770 -3510,1150 -4650,1150 -2930,0 -5860,-1150 -8760,-3440 -5880,8820 -12650,13250 -20260,13250 -4750,0 -8590,-1790 -11540,-5370 -2960,-3580 -4420,-8320 -4420,-14230 0,-9380 3310,-17410 9950,-24130 6620,-6730 14540,-10080 23760,-10080 3480,0 6010,380 7630,1150 1630,750 2620,1660 2990,2680 360,1050 550,2350 550,3920 0,7730 -2100,17220 -6270,28450 2080,1930 4280,2900 6560,2900 2730,0 6250,-2430 10520,-7300l0 7070zm-20200 -34600c-630,-250 -1510,-370 -2640,-370 -5320,0 -9490,2800 -12510,8440 -2990,5610 -4500,12190 -4500,19720 0,4170 650,7410 1970,9720 1300,2320 3120,3480 5470,3480 2890,0 6050,-2690 9450,-8070 -3880,-4880 -5830,-10140 -5830,-15780 0,-6620 2870,-12340 8590,-17140zm55530 34570c-5160,5120 -9620,8890 -13370,11320 -3770,2430 -7350,3650 -10750,3650 -3520,0 -6370,-1490 -8550,-4470 -2200,-2970 -3290,-6890 -3290,-11750 0,-4280 1050,-9890 3150,-16890l2660 -9390 -4800 250 1970 -9680 5840 -250 5790 -19130 16470 -3370 -6400 21350 8640 -480 -2030 9430 -9500 750 -4100 13890c-1410,4780 -2120,8590 -2120,11460 0,1930 480,3520 1450,4740 940,1240 2200,1840 3710,1840 2090,0 4140,-670 6200,-1990 2050,-1340 5050,-4100 9030,-8320l0 7040zm45860 0c-5190,5120 -9840,8890 -13990,11320 -4130,2430 -8700,3650 -13690,3650 -5550,0 -10030,-1790 -13450,-5350 -3410,-3580 -5130,-8270 -5130,-14080 0,-8690 3020,-16550 9030,-23590 6010,-7020 12680,-10540 20010,-10540 3790,0 6850,980 9140,2950 2280,1950 3430,4530 3430,7740 0,8460 -8970,15330 -26920,20610 1630,8050 5910,12070 12800,12070 2680,0 5260,-730 7710,-2180 2430,-1440 6140,-4650 11060,-9640l0 7040zm-32050 -11440c10390,-2930 15580,-8360 15580,-16250 0,-3920 -1420,-5870 -4250,-5870 -2680,0 -5240,2050 -7690,6140 -2430,4100 -3640,9430 -3640,15980zm72680 11440c-5550,5120 -10430,8890 -14620,11320 -4220,2430 -8200,3650 -12010,3650 -4380,0 -7900,-1700 -10580,-5100 -2680,-3390 -4020,-7960 -4020,-13680 0,-8610 1860,-18920 5570,-30950 3710,-12020 8230,-23130 13540,-33270l15580 -5760c490,-170 860,-250 1120,-250 1170,0 2150,860 2910,2590 750,1740 1130,4090 1130,7050 0,8330 -1930,16420 -5760,24240 -3840,7810 -9850,16170 -18020,25040 -320,4270 -490,7200 -490,8800 0,3560 650,6390 1970,8460 1300,2100 3040,3150 5220,3150 2200,0 4550,-800 7040,-2390 2500,-1600 6310,-4910 11420,-9940l0 7040zm-23510 -24010c5200,-5780 9410,-12250 12640,-19440 3220,-7170 4840,-13350 4840,-18500 0,-1530 -230,-2750 -670,-3670 -460,-920 -1030,-1380 -1720,-1380 -1510,0 -3710,3770 -6580,11310 -2890,7540 -5720,18110 -8510,31680zm115180 24010c-9450,9980 -17560,14970 -24300,14970 -2730,0 -4950,-970 -6620,-2900 -1680,-1920 -2520,-4520 -2520,-7750 0,-4400 1800,-11120 5410,-20200 1920,-4880 2890,-7980 2890,-9300 0,-1320 -530,-1970 -1550,-1970 -570,0 -1320,290 -2270,860 -850,590 -1860,1380 -3010,2410 -1030,940 -2160,2090 -3440,3440 -1090,1150 -2280,2470 -3560,3930l-3440 4010c-1510,1860 -2450,3810 -2830,5860 -600,3480 -1000,6690 -1210,9600 -130,2180 -190,5110 -190,8800l-13540 3210c-440,-5540 -670,-9640 -670,-12350 0,-6570 780,-12820 2310,-18710 1530,-5880 3980,-12510 7370,-19860l14960 -2890c-3140,8380 -5210,15020 -6200,19880 6710,-7480 12050,-12670 15990,-15540 3960,-2900 7460,-4340 10540,-4340 2070,0 3810,790 5220,2370 1380,1570 2070,3540 2070,5900 0,3920 -1760,10420 -5300,19490 -2430,6220 -3650,10270 -3650,12130 0,2500 1010,3730 3020,3730 3000,0 7840,-3940 14520,-11820l0 7040zm65500 0c-6540,6210 -11230,10270 -14060,12140 -2830,1880 -5510,2830 -8090,2830 -6470,0 -9530,-5720 -9150,-17160 -4090,5860 -7860,10180 -11320,12960 -3450,2790 -7020,4200 -10700,4200 -3590,0 -6650,-1700 -9160,-5070 -2520,-3400 -3770,-7550 -3770,-12450 0,-6160 1670,-12030 5050,-17600 3370,-5580 7710,-10080 12970,-13520 5280,-3450 9950,-5170 13990,-5170 5120,0 8700,2340 10730,7060l12620 -7060 3450 0 -5440 18080c-2830,9090 -4240,15320 -4240,18690 0,3560 1260,5340 3750,5340 1600,0 3360,-860 5260,-2550 1930,-1700 4630,-4280 8110,-7760l0 7040zm-44900 3270c4080,0 7940,-3500 11540,-10470 3630,-6980 5430,-13410 5430,-19300 0,-2310 -500,-4090 -1530,-5390 -1030,-1270 -2390,-1920 -4110,-1920 -4080,0 -7960,3470 -11600,10430 -3670,6960 -5490,13370 -5490,19220 0,2220 540,4000 1630,5380 1070,1360 2450,2050 4130,2050zm202050 -3390c-9160,9890 -17520,14830 -25040,14830 -4590,0 -8070,-2200 -10480,-6620 -2380,-4420 -3580,-10350 -3580,-17740 0,-5750 1170,-13620 3540,-23640 2350,-10040 5390,-18460 9120,-25310l3560 -6390c-4860,5070 -8840,10620 -11970,16680 -3100,6030 -6810,14480 -11120,25330 -4320,10830 -7570,18230 -9790,22170 -2200,3920 -4310,7120 -6350,9590 -2030,2480 -3830,4090 -5420,4820 -1570,740 -4320,1110 -8260,1110 -1530,0 -2280,-410 -2280,-1230 0,-90 270,-1360 790,-3860 550,-2490 1090,-6490 1640,-12000 560,-5510 960,-14860 1210,-28060 230,-13200 2180,-24510 5790,-33920 -3860,4380 -7780,14560 -11800,30570l-1530 6010c-4210,16660 -9050,27910 -14500,33740 -5450,5840 -10790,8750 -16030,8750 -3220,0 -6070,-1020 -8530,-3080 -2450,-2030 -3680,-4400 -3680,-7060 0,-2030 1460,-4330 4400,-6870 2950,-2540 4800,-3810 5570,-3810 900,0 1490,310 1780,920 270,630 650,2300 1090,5070 460,2770 1150,4570 2080,5410 920,830 2070,1250 3470,1250 3170,0 6650,-3160 10460,-9490 3810,-6310 7310,-16090 10480,-29290l1780 -7440c1440,-6060 2850,-10870 4250,-14480 1380,-3600 3230,-7210 5530,-10810 3330,-5150 5370,-7900 6120,-8260 750,-330 2180,-620 4270,-860 2080,-230 4170,-330 6250,-330 820,0 1230,460 1230,1400 0,460 -120,1390 -370,2770 -800,5720 -1180,11480 -1130,17240l120 16450c90,14330 -1050,25880 -3390,34680 2160,-2620 5320,-9390 9450,-20280 5970,-15470 11400,-27050 16300,-34810 2350,-3730 5150,-7290 8440,-10720 3290,-3420 5580,-5260 6830,-5490 4340,-820 8010,-1240 11000,-1240 1110,0 1660,310 1660,920 0,880 -670,2810 -1990,5830 -3120,7270 -6100,17030 -8890,29310 -2800,12260 -4210,22020 -4210,29290 0,8240 2520,12340 7550,12340 4080,0 8940,-3470 14580,-10430l0 7040zm65500 120c-6540,6210 -11230,10270 -14060,12140 -2830,1880 -5510,2830 -8090,2830 -6470,0 -9530,-5720 -9150,-17160 -4090,5860 -7860,10180 -11320,12960 -3460,2790 -7020,4200 -10710,4200 -3580,0 -6640,-1700 -9150,-5070 -2520,-3400 -3770,-7550 -3770,-12450 0,-6160 1670,-12030 5040,-17600 3380,-5580 7720,-10080 12970,-13520 5280,-3450 9960,-5170 14000,-5170 5110,0 8700,2340 10730,7060l12610 -7060 3460 0 -5450 18080c-2830,9090 -4230,15320 -4230,18690 0,3560 1260,5340 3750,5340 1590,0 3350,-860 5260,-2550 1930,-1700 4630,-4280 8110,-7760l0 7040zm-44900 3270c4080,0 7940,-3500 11540,-10470 3630,-6980 5430,-13410 5430,-19300 0,-2310 -500,-4090 -1530,-5390 -1030,-1270 -2390,-1920 -4110,-1920 -4080,0 -7960,3470 -11610,10430 -3660,6960 -5490,13370 -5490,19220 0,2220 550,4000 1640,5380 1070,1360 2450,2050 4130,2050zm105120 -3270c-5550,6080 -9740,10100 -12550,12050 -2790,1950 -5580,2920 -8320,2920 -1550,0 -4400,-670 -8550,-2020 -4150,-1340 -7290,-2010 -9410,-2010 -2660,0 -4610,670 -5800,2010 -1220,1350 -1990,2020 -2370,2020 -2050,0 -3270,-30 -3690,-90 -400,-60 -610,-230 -610,-460 0,-900 3500,-5640 10500,-14160l21190 -25760c-2390,490 -4950,740 -7670,740 -3690,0 -7500,-610 -11420,-1850 -7380,10610 -14540,19470 -21500,26610l-1400 0 0 -5530c5190,-5340 10200,-11310 15000,-17950 4820,-6620 7600,-10790 8380,-12530 770,-1720 1420,-2580 1910,-2580 290,0 2180,270 5650,820 3480,540 6270,810 8410,810 3830,0 7370,-270 10580,-810 3200,-550 5090,-820 5610,-820 780,0 1180,190 1180,590 -90,1460 -3400,6160 -9980,14080l-19760 24050c1640,-170 3000,-250 4050,-250 770,0 3430,460 7960,1380 4500,920 7230,1390 8130,1390 2530,0 4710,-680 6540,-2040 1820,-1340 4460,-3890 7940,-7650l0 7040zm65500 0c-5410,5120 -9910,8890 -13560,11320 -3650,2430 -6910,3650 -9830,3650 -3220,0 -5700,-1300 -7430,-3880 -1740,-2580 -2620,-6080 -2620,-10520 -4490,4920 -8530,8550 -12070,10900 -3560,2320 -7040,3500 -10440,3500 -3100,0 -5610,-1280 -7480,-3860 -1880,-2580 -2830,-6060 -2830,-10480 0,-8480 2870,-20470 8590,-35950l16520 -3310c-6810,19670 -10290,32290 -10400,37820 0,3920 1490,5860 4440,5860 2160,0 4800,-1710 7990,-5150 3160,-3460 5150,-6470 5930,-9030l8040 -26190 16720 -3270c-3850,12280 -6510,20930 -7960,25900 -1420,4980 -2160,8480 -2160,10500 0,3830 1320,5740 3940,5740 2120,0 5280,-1930 9450,-5790l5160 -4800 0 7040zm45880 0c-10280,9980 -18200,14970 -23780,14970 -2490,0 -4610,-1050 -6320,-3170 -1720,-2090 -2580,-4710 -2580,-7810 0,-5790 3080,-13520 9260,-23200 -3020,1550 -6330,2640 -9910,3250 -2660,4940 -6830,10270 -12530,15960l-1410 0 0 -5530c3210,-3350 6080,-6950 8660,-10810 -3500,-1550 -5260,-3830 -5260,-6890 0,-3120 1070,-6480 3200,-10020 2160,-3560 5120,-5340 8870,-5340 3180,0 4780,1630 4780,4880 0,2560 -930,6200 -2770,10960 6790,-730 12740,-5930 17810,-15590l5570 -250 -5680 15710c-2360,6630 -3890,11130 -4580,13520 -700,2410 -1050,4520 -1050,6370 0,1720 400,3080 1190,4110 800,1020 1870,1530 3230,1530 1470,0 2870,-510 4230,-1490 1340,-990 4380,-3710 9070,-8200l0 7040zm65520 0c-6530,6210 -11230,10270 -14060,12140 -2820,1880 -5510,2830 -8080,2830 -6480,0 -9540,-5720 -9160,-17160 -4090,5860 -7860,10180 -11310,12960 -3460,2790 -7020,4200 -10710,4200 -3580,0 -6640,-1700 -9160,-5070 -2510,-3400 -3770,-7550 -3770,-12450 0,-6160 1680,-12030 5050,-17600 3370,-5580 7710,-10080 12970,-13520 5280,-3450 9950,-5170 14000,-5170 5110,0 8690,2340 10730,7060l12610 -7060 3460 0 -5450 18080c-2830,9090 -4230,15320 -4230,18690 0,3560 1250,5340 3750,5340 1590,0 3350,-860 5260,-2550 1920,-1700 4630,-4280 8100,-7760l0 7040zm-44900 3270c4090,0 7940,-3500 11550,-10470 3620,-6980 5420,-13410 5420,-19300 0,-2310 -500,-4090 -1530,-5390 -1020,-1270 -2380,-1920 -4100,-1920 -4090,0 -7960,3470 -11610,10430 -3670,6960 -5490,13370 -5490,19220 0,2220 540,4000 1630,5380 1070,1360 2460,2050 4130,2050zm90790 -3270c-5240,5160 -10030,8930 -14390,11340 -4360,2410 -8910,3630 -13640,3630 -5330,0 -9730,-1740 -13180,-5220 -3460,-3460 -5180,-7880 -5180,-13220 0,-8740 3190,-16830 9540,-24250 6340,-7410 13240,-11120 20630,-11120 3630,0 6600,1000 8890,3040 2280,2030 3430,4650 3430,7900 0,1130 -200,1990 -640,2570 -420,570 -1240,1130 -2410,1720l-7130 3370c-860,400 -1490,610 -1910,610 -560,0 -850,-400 -850,-1230 0,-320 120,-1390 370,-3210 250,-1820 380,-2930 380,-3350 0,-1800 -380,-3250 -1130,-4360 -760,-1110 -1780,-1660 -3040,-1660 -3000,0 -5720,2230 -8210,6670 -2480,4440 -3710,9510 -3710,15190 0,4900 1170,8800 3500,11730 2320,2910 5440,4380 9340,4380 3310,0 6430,-940 9370,-2850 2910,-1880 6240,-4800 9970,-8720l0 7040z"/>
   <path fill="#ffffff" fill-rule="nonzero" d="M1300430 74420c-9700,9980 -17660,14970 -23930,14970 -2780,0 -5090,-950 -6910,-2850 -1820,-1910 -2730,-4320 -2730,-7210 0,-4910 1890,-11820 5660,-20750 1990,-4810 3000,-7960 3000,-9420 0,-1680 -800,-2520 -2390,-2520 -1630,0 -4000,1110 -7120,3330 -3110,2240 -6370,5280 -9810,9120 -1450,7520 -2160,16550 -2160,27110l-13660 3190c-520,-4300 -800,-8970 -800,-14020 0,-12220 1680,-23570 5030,-34110 3360,-10540 8640,-21710 15840,-33510 5370,-2180 10020,-3940 14000,-5320 4000,-1360 6260,-2050 6850,-2050 1050,0 1950,860 2680,2570 740,1740 1110,3900 1110,6480 0,4360 -1320,9180 -3980,14460 -2660,5260 -6850,11650 -12530,19110 5470,-3150 9120,-5120 10920,-5930 1820,-820 3670,-1240 5570,-1240 2100,0 3800,750 5090,2240 1280,1510 1930,3480 1930,5950 0,3690 -1460,9390 -4440,17120 -2970,7710 -4440,12550 -4440,14560 0,930 270,1720 820,2430 540,720 1190,1070 1920,1070 2620,0 7440,-3940 14480,-11820l0 7040zm-42510 -25290c14600,-17010 21890,-29560 21890,-37650 0,-2450 -670,-3690 -2030,-3690 -2240,0 -5450,4050 -9620,12110 -4190,8090 -7600,17840 -10240,29230zm65390 26050c-1800,5850 -3450,9660 -4940,11480 -1510,1820 -3750,2730 -6730,2730 -3690,0 -7270,-1320 -10710,-3940 2180,-3360 4240,-8150 6140,-14420 2640,2240 4570,3650 5790,4250 1230,610 2700,900 4420,900 1490,0 3500,-330 6030,-1000zm24920 0c-1810,5850 -3460,9660 -4950,11480 -1510,1820 -3750,2730 -6730,2730 -3680,0 -7270,-1320 -10700,-3940 2180,-3360 4230,-8150 6140,-14420 2640,2240 4560,3650 5780,4250 1240,610 2700,900 4420,900 1490,0 3500,-330 6040,-1000zm24910 0c-1800,5850 -3460,9660 -4950,11480 -1500,1820 -3750,2730 -6720,2730 -3690,0 -7270,-1320 -10710,-3940 2180,-3360 4230,-8150 6140,-14420 2640,2240 4570,3650 5780,4250 1240,610 2710,900 4420,900 1490,0 3500,-330 6040,-1000z"/>
  </g>
 </g>
</svg>
